<mxfile host="app.diagrams.net" modified="2023-08-14T14:16:06.330Z" agent="Mozilla/5.0 (Windows NT 10.0; Win64; x64) AppleWebKit/537.36 (KHTML, like Gecko) Chrome/115.0.0.0 Safari/537.36" version="21.6.8" etag="NMM2CW5HbUV0jyLibBVp" type="github">
  <diagram name="ページ1" id="dT8lKvFCBUrScKRdb4rl">
    <mxGraphModel>
      <root>
        <mxCell id="0" />
        <mxCell id="1" parent="0" />
      </root>
    </mxGraphModel>
  </diagram>
</mxfile>
